<mxfile host="app.diagrams.net" agent="Mozilla/5.0 (Macintosh; Intel Mac OS X 10_15_7) AppleWebKit/537.36 (KHTML, like Gecko) Chrome/135.0.0.0 Safari/537.36" version="26.2.15">
  <diagram name="第 1 页" id="21PdaIKvcIiXlclW7-fM">
    <mxGraphModel dx="2066" dy="1126" grid="1" gridSize="10" guides="1" tooltips="1" connect="1" arrows="1" fold="1" page="1" pageScale="1" pageWidth="827" pageHeight="1169" math="0" shadow="0">
      <root>
        <mxCell id="0" />
        <mxCell id="1" parent="0" />
        <mxCell id="PNhsJ7UvJWjZuk8Qu5A2-33" value="" style="rounded=0;whiteSpace=wrap;html=1;fillColor=none;" vertex="1" parent="1">
          <mxGeometry x="320" y="1443" width="200" height="250" as="geometry" />
        </mxCell>
        <mxCell id="PNhsJ7UvJWjZuk8Qu5A2-2" value="" style="edgeStyle=orthogonalEdgeStyle;rounded=0;orthogonalLoop=1;jettySize=auto;html=1;" edge="1" parent="1" source="WAjBSeRbMnZeNYtjWVgf-1" target="PNhsJ7UvJWjZuk8Qu5A2-1">
          <mxGeometry relative="1" as="geometry" />
        </mxCell>
        <mxCell id="WAjBSeRbMnZeNYtjWVgf-1" value="用户输入问题" style="rounded=1;whiteSpace=wrap;html=1;" parent="1" vertex="1">
          <mxGeometry x="320" y="80" width="200" height="60" as="geometry" />
        </mxCell>
        <mxCell id="PNhsJ7UvJWjZuk8Qu5A2-17" value="" style="edgeStyle=orthogonalEdgeStyle;rounded=0;orthogonalLoop=1;jettySize=auto;html=1;" edge="1" parent="1" source="PNhsJ7UvJWjZuk8Qu5A2-1" target="PNhsJ7UvJWjZuk8Qu5A2-16">
          <mxGeometry relative="1" as="geometry" />
        </mxCell>
        <mxCell id="PNhsJ7UvJWjZuk8Qu5A2-1" value="识别用户需求&lt;span style=&quot;color: rgb(47, 50, 56); font-family: -apple-system, &amp;quot;system-ui&amp;quot;, &amp;quot;Helvetica Neue&amp;quot;, Helvetica, &amp;quot;Apple Color&amp;quot;, Emoji, &amp;quot;Segoe UI&amp;quot;, &amp;quot;Segoe UI Emoji&amp;quot;, &amp;quot;Apple Color Emoji&amp;quot;, &amp;quot;Segoe UI Symbol&amp;quot;, Arial, &amp;quot;PingFang SC&amp;quot;, &amp;quot;Hiragino Sans GB&amp;quot;, &amp;quot;Microsoft YaHei&amp;quot;, &amp;quot;Heiti SC&amp;quot;, sans-serif; font-size: 14px; text-align: start; white-space-collapse: preserve; background-color: rgb(239, 242, 245);&quot;&gt;「&lt;/span&gt;售前答疑&lt;span style=&quot;color: rgb(47, 50, 56); font-family: -apple-system, &amp;quot;system-ui&amp;quot;, &amp;quot;Helvetica Neue&amp;quot;, Helvetica, &amp;quot;Apple Color&amp;quot;, Emoji, &amp;quot;Segoe UI&amp;quot;, &amp;quot;Segoe UI Emoji&amp;quot;, &amp;quot;Apple Color Emoji&amp;quot;, &amp;quot;Segoe UI Symbol&amp;quot;, Arial, &amp;quot;PingFang SC&amp;quot;, &amp;quot;Hiragino Sans GB&amp;quot;, &amp;quot;Microsoft YaHei&amp;quot;, &amp;quot;Heiti SC&amp;quot;, sans-serif; font-size: 14px; text-align: start; white-space-collapse: preserve; background-color: rgb(239, 242, 245);&quot;&gt;」&lt;/span&gt;" style="rounded=0;whiteSpace=wrap;html=1;" vertex="1" parent="1">
          <mxGeometry x="320" y="220" width="200" height="60" as="geometry" />
        </mxCell>
        <mxCell id="PNhsJ7UvJWjZuk8Qu5A2-6" value="" style="edgeStyle=orthogonalEdgeStyle;rounded=0;orthogonalLoop=1;jettySize=auto;html=1;" edge="1" parent="1" source="PNhsJ7UvJWjZuk8Qu5A2-3" target="PNhsJ7UvJWjZuk8Qu5A2-5">
          <mxGeometry relative="1" as="geometry" />
        </mxCell>
        <mxCell id="PNhsJ7UvJWjZuk8Qu5A2-3" value="解析参数提取用户标识" style="rounded=0;whiteSpace=wrap;html=1;" vertex="1" parent="1">
          <mxGeometry x="320" y="530" width="200" height="60" as="geometry" />
        </mxCell>
        <mxCell id="PNhsJ7UvJWjZuk8Qu5A2-8" value="" style="edgeStyle=orthogonalEdgeStyle;rounded=0;orthogonalLoop=1;jettySize=auto;html=1;" edge="1" parent="1" source="PNhsJ7UvJWjZuk8Qu5A2-5" target="PNhsJ7UvJWjZuk8Qu5A2-7">
          <mxGeometry relative="1" as="geometry" />
        </mxCell>
        <mxCell id="PNhsJ7UvJWjZuk8Qu5A2-9" value="是" style="edgeLabel;html=1;align=center;verticalAlign=middle;resizable=0;points=[];" vertex="1" connectable="0" parent="PNhsJ7UvJWjZuk8Qu5A2-8">
          <mxGeometry x="-0.34" relative="1" as="geometry">
            <mxPoint x="7" as="offset" />
          </mxGeometry>
        </mxCell>
        <mxCell id="PNhsJ7UvJWjZuk8Qu5A2-11" value="" style="edgeStyle=orthogonalEdgeStyle;rounded=0;orthogonalLoop=1;jettySize=auto;html=1;" edge="1" parent="1" source="PNhsJ7UvJWjZuk8Qu5A2-5" target="PNhsJ7UvJWjZuk8Qu5A2-10">
          <mxGeometry relative="1" as="geometry" />
        </mxCell>
        <mxCell id="PNhsJ7UvJWjZuk8Qu5A2-12" value="否" style="edgeLabel;html=1;align=center;verticalAlign=middle;resizable=0;points=[];" vertex="1" connectable="0" parent="PNhsJ7UvJWjZuk8Qu5A2-11">
          <mxGeometry x="-0.2222" relative="1" as="geometry">
            <mxPoint as="offset" />
          </mxGeometry>
        </mxCell>
        <mxCell id="PNhsJ7UvJWjZuk8Qu5A2-5" value="是否为&lt;div&gt;手机号&lt;/div&gt;" style="rhombus;whiteSpace=wrap;html=1;rounded=0;" vertex="1" parent="1">
          <mxGeometry x="380" y="660" width="80" height="80" as="geometry" />
        </mxCell>
        <mxCell id="PNhsJ7UvJWjZuk8Qu5A2-13" style="edgeStyle=orthogonalEdgeStyle;rounded=0;orthogonalLoop=1;jettySize=auto;html=1;exitX=0.5;exitY=1;exitDx=0;exitDy=0;entryX=0;entryY=0.5;entryDx=0;entryDy=0;" edge="1" parent="1" source="PNhsJ7UvJWjZuk8Qu5A2-7" target="PNhsJ7UvJWjZuk8Qu5A2-10">
          <mxGeometry relative="1" as="geometry" />
        </mxCell>
        <mxCell id="PNhsJ7UvJWjZuk8Qu5A2-7" value="查询用户中心" style="whiteSpace=wrap;html=1;rounded=0;" vertex="1" parent="1">
          <mxGeometry x="40" y="670" width="200" height="60" as="geometry" />
        </mxCell>
        <mxCell id="PNhsJ7UvJWjZuk8Qu5A2-15" value="" style="edgeStyle=orthogonalEdgeStyle;rounded=0;orthogonalLoop=1;jettySize=auto;html=1;" edge="1" parent="1" source="PNhsJ7UvJWjZuk8Qu5A2-10" target="PNhsJ7UvJWjZuk8Qu5A2-14">
          <mxGeometry relative="1" as="geometry" />
        </mxCell>
        <mxCell id="PNhsJ7UvJWjZuk8Qu5A2-10" value="获得用户UID" style="whiteSpace=wrap;html=1;rounded=0;" vertex="1" parent="1">
          <mxGeometry x="320" y="830" width="200" height="60" as="geometry" />
        </mxCell>
        <mxCell id="PNhsJ7UvJWjZuk8Qu5A2-26" value="" style="edgeStyle=orthogonalEdgeStyle;rounded=0;orthogonalLoop=1;jettySize=auto;html=1;exitX=0.5;exitY=1;exitDx=0;exitDy=0;" edge="1" parent="1" source="PNhsJ7UvJWjZuk8Qu5A2-14" target="PNhsJ7UvJWjZuk8Qu5A2-25">
          <mxGeometry relative="1" as="geometry" />
        </mxCell>
        <mxCell id="PNhsJ7UvJWjZuk8Qu5A2-14" value="识别答疑类目" style="whiteSpace=wrap;html=1;rounded=0;" vertex="1" parent="1">
          <mxGeometry x="320" y="970" width="200" height="60" as="geometry" />
        </mxCell>
        <mxCell id="PNhsJ7UvJWjZuk8Qu5A2-18" style="edgeStyle=orthogonalEdgeStyle;rounded=0;orthogonalLoop=1;jettySize=auto;html=1;exitX=0.5;exitY=1;exitDx=0;exitDy=0;" edge="1" parent="1" source="PNhsJ7UvJWjZuk8Qu5A2-16" target="PNhsJ7UvJWjZuk8Qu5A2-3">
          <mxGeometry relative="1" as="geometry" />
        </mxCell>
        <mxCell id="PNhsJ7UvJWjZuk8Qu5A2-19" value="存在" style="edgeLabel;html=1;align=center;verticalAlign=middle;resizable=0;points=[];" vertex="1" connectable="0" parent="PNhsJ7UvJWjZuk8Qu5A2-18">
          <mxGeometry x="-0.2" y="-2" relative="1" as="geometry">
            <mxPoint as="offset" />
          </mxGeometry>
        </mxCell>
        <mxCell id="PNhsJ7UvJWjZuk8Qu5A2-21" value="" style="edgeStyle=orthogonalEdgeStyle;rounded=0;orthogonalLoop=1;jettySize=auto;html=1;" edge="1" parent="1" source="PNhsJ7UvJWjZuk8Qu5A2-16" target="PNhsJ7UvJWjZuk8Qu5A2-20">
          <mxGeometry relative="1" as="geometry" />
        </mxCell>
        <mxCell id="PNhsJ7UvJWjZuk8Qu5A2-22" value="不存在" style="edgeLabel;html=1;align=center;verticalAlign=middle;resizable=0;points=[];" vertex="1" connectable="0" parent="PNhsJ7UvJWjZuk8Qu5A2-21">
          <mxGeometry x="-0.08" relative="1" as="geometry">
            <mxPoint as="offset" />
          </mxGeometry>
        </mxCell>
        <mxCell id="PNhsJ7UvJWjZuk8Qu5A2-16" value="存在用&lt;div&gt;户标识&lt;/div&gt;" style="rhombus;whiteSpace=wrap;html=1;rounded=0;" vertex="1" parent="1">
          <mxGeometry x="380" y="360" width="80" height="80" as="geometry" />
        </mxCell>
        <mxCell id="PNhsJ7UvJWjZuk8Qu5A2-24" value="" style="edgeStyle=orthogonalEdgeStyle;rounded=0;orthogonalLoop=1;jettySize=auto;html=1;" edge="1" parent="1" source="PNhsJ7UvJWjZuk8Qu5A2-20" target="PNhsJ7UvJWjZuk8Qu5A2-23">
          <mxGeometry relative="1" as="geometry" />
        </mxCell>
        <mxCell id="PNhsJ7UvJWjZuk8Qu5A2-20" value="知识库检索" style="whiteSpace=wrap;html=1;rounded=0;" vertex="1" parent="1">
          <mxGeometry x="600" y="370" width="200" height="60" as="geometry" />
        </mxCell>
        <mxCell id="PNhsJ7UvJWjZuk8Qu5A2-23" value="模型总结输出" style="whiteSpace=wrap;html=1;rounded=1;" vertex="1" parent="1">
          <mxGeometry x="600" y="530" width="200" height="60" as="geometry" />
        </mxCell>
        <mxCell id="PNhsJ7UvJWjZuk8Qu5A2-43" style="edgeStyle=orthogonalEdgeStyle;rounded=0;orthogonalLoop=1;jettySize=auto;html=1;exitX=0.5;exitY=1;exitDx=0;exitDy=0;entryX=0.5;entryY=0;entryDx=0;entryDy=0;" edge="1" parent="1" source="PNhsJ7UvJWjZuk8Qu5A2-25" target="PNhsJ7UvJWjZuk8Qu5A2-27">
          <mxGeometry relative="1" as="geometry" />
        </mxCell>
        <mxCell id="PNhsJ7UvJWjZuk8Qu5A2-25" value="续报明细" style="whiteSpace=wrap;html=1;rounded=0;" vertex="1" parent="1">
          <mxGeometry x="319.5" y="1170" width="200" height="60" as="geometry" />
        </mxCell>
        <mxCell id="PNhsJ7UvJWjZuk8Qu5A2-30" value="" style="edgeStyle=orthogonalEdgeStyle;rounded=0;orthogonalLoop=1;jettySize=auto;html=1;" edge="1" parent="1" source="PNhsJ7UvJWjZuk8Qu5A2-27" target="PNhsJ7UvJWjZuk8Qu5A2-29">
          <mxGeometry relative="1" as="geometry" />
        </mxCell>
        <mxCell id="PNhsJ7UvJWjZuk8Qu5A2-27" value="优惠结算" style="whiteSpace=wrap;html=1;rounded=0;" vertex="1" parent="1">
          <mxGeometry x="320" y="1320" width="200" height="60" as="geometry" />
        </mxCell>
        <mxCell id="PNhsJ7UvJWjZuk8Qu5A2-32" value="" style="edgeStyle=orthogonalEdgeStyle;rounded=0;orthogonalLoop=1;jettySize=auto;html=1;" edge="1" parent="1" source="PNhsJ7UvJWjZuk8Qu5A2-29" target="PNhsJ7UvJWjZuk8Qu5A2-31">
          <mxGeometry relative="1" as="geometry" />
        </mxCell>
        <mxCell id="PNhsJ7UvJWjZuk8Qu5A2-29" value="输入用户预期购买商品编号" style="whiteSpace=wrap;html=1;rounded=0;" vertex="1" parent="1">
          <mxGeometry x="330" y="1473" width="180" height="60" as="geometry" />
        </mxCell>
        <mxCell id="PNhsJ7UvJWjZuk8Qu5A2-31" value="返回购买优惠信息" style="whiteSpace=wrap;html=1;rounded=0;" vertex="1" parent="1">
          <mxGeometry x="330" y="1613" width="180" height="60" as="geometry" />
        </mxCell>
        <mxCell id="PNhsJ7UvJWjZuk8Qu5A2-40" value="" style="edgeStyle=orthogonalEdgeStyle;rounded=0;orthogonalLoop=1;jettySize=auto;html=1;" edge="1" parent="1" source="PNhsJ7UvJWjZuk8Qu5A2-33" target="PNhsJ7UvJWjZuk8Qu5A2-39">
          <mxGeometry relative="1" as="geometry" />
        </mxCell>
        <mxCell id="PNhsJ7UvJWjZuk8Qu5A2-35" style="edgeStyle=orthogonalEdgeStyle;rounded=0;orthogonalLoop=1;jettySize=auto;html=1;exitX=1;exitY=1;exitDx=0;exitDy=0;entryX=1;entryY=0;entryDx=0;entryDy=0;dashed=1;strokeColor=#3399FF;" edge="1" parent="1" source="PNhsJ7UvJWjZuk8Qu5A2-33" target="PNhsJ7UvJWjZuk8Qu5A2-33">
          <mxGeometry relative="1" as="geometry">
            <Array as="points">
              <mxPoint x="529.5" y="1713" />
              <mxPoint x="559.5" y="1713" />
              <mxPoint x="559.5" y="1423" />
              <mxPoint x="529.5" y="1423" />
            </Array>
          </mxGeometry>
        </mxCell>
        <mxCell id="PNhsJ7UvJWjZuk8Qu5A2-36" style="edgeStyle=orthogonalEdgeStyle;rounded=0;orthogonalLoop=1;jettySize=auto;html=1;exitX=0;exitY=0;exitDx=0;exitDy=0;entryX=0;entryY=1;entryDx=0;entryDy=0;dashed=1;strokeColor=#3399FF;" edge="1" parent="1" source="PNhsJ7UvJWjZuk8Qu5A2-33" target="PNhsJ7UvJWjZuk8Qu5A2-33">
          <mxGeometry relative="1" as="geometry">
            <Array as="points">
              <mxPoint x="309.5" y="1423" />
              <mxPoint x="279.5" y="1423" />
              <mxPoint x="279.5" y="1713" />
              <mxPoint x="309.5" y="1713" />
            </Array>
          </mxGeometry>
        </mxCell>
        <mxCell id="PNhsJ7UvJWjZuk8Qu5A2-37" value="重&lt;div&gt;复&lt;/div&gt;&lt;div&gt;执&lt;/div&gt;&lt;div&gt;行&lt;/div&gt;" style="text;html=1;align=center;verticalAlign=middle;resizable=0;points=[];autosize=1;strokeColor=none;fillColor=none;fontSize=15;fontColor=#3399FF;" vertex="1" parent="1">
          <mxGeometry x="519.5" y="1513" width="40" height="90" as="geometry" />
        </mxCell>
        <mxCell id="PNhsJ7UvJWjZuk8Qu5A2-38" value="重&lt;div&gt;复&lt;/div&gt;&lt;div&gt;执&lt;/div&gt;&lt;div&gt;行&lt;/div&gt;" style="text;html=1;align=center;verticalAlign=middle;resizable=0;points=[];autosize=1;strokeColor=none;fillColor=none;fontSize=15;fontColor=#3399FF;" vertex="1" parent="1">
          <mxGeometry x="279.5" y="1513" width="40" height="90" as="geometry" />
        </mxCell>
        <mxCell id="PNhsJ7UvJWjZuk8Qu5A2-47" value="" style="edgeStyle=orthogonalEdgeStyle;rounded=0;orthogonalLoop=1;jettySize=auto;html=1;" edge="1" parent="1" source="PNhsJ7UvJWjZuk8Qu5A2-39" target="PNhsJ7UvJWjZuk8Qu5A2-46">
          <mxGeometry relative="1" as="geometry" />
        </mxCell>
        <mxCell id="PNhsJ7UvJWjZuk8Qu5A2-39" value="给用户推荐最佳购买组合" style="whiteSpace=wrap;html=1;fillColor=none;rounded=0;" vertex="1" parent="1">
          <mxGeometry x="320" y="1754" width="200" height="60" as="geometry" />
        </mxCell>
        <mxCell id="PNhsJ7UvJWjZuk8Qu5A2-49" value="" style="edgeStyle=orthogonalEdgeStyle;rounded=0;orthogonalLoop=1;jettySize=auto;html=1;" edge="1" parent="1" source="PNhsJ7UvJWjZuk8Qu5A2-46" target="PNhsJ7UvJWjZuk8Qu5A2-48">
          <mxGeometry relative="1" as="geometry" />
        </mxCell>
        <mxCell id="PNhsJ7UvJWjZuk8Qu5A2-50" value="是" style="edgeLabel;html=1;align=center;verticalAlign=middle;resizable=0;points=[];" vertex="1" connectable="0" parent="PNhsJ7UvJWjZuk8Qu5A2-49">
          <mxGeometry x="-0.0819" y="-3" relative="1" as="geometry">
            <mxPoint x="1" y="-4" as="offset" />
          </mxGeometry>
        </mxCell>
        <mxCell id="PNhsJ7UvJWjZuk8Qu5A2-52" value="" style="edgeStyle=orthogonalEdgeStyle;rounded=0;orthogonalLoop=1;jettySize=auto;html=1;" edge="1" parent="1" source="PNhsJ7UvJWjZuk8Qu5A2-46" target="PNhsJ7UvJWjZuk8Qu5A2-51">
          <mxGeometry relative="1" as="geometry" />
        </mxCell>
        <mxCell id="PNhsJ7UvJWjZuk8Qu5A2-53" value="否" style="edgeLabel;html=1;align=center;verticalAlign=middle;resizable=0;points=[];" vertex="1" connectable="0" parent="PNhsJ7UvJWjZuk8Qu5A2-52">
          <mxGeometry x="-0.1381" relative="1" as="geometry">
            <mxPoint x="-1" as="offset" />
          </mxGeometry>
        </mxCell>
        <mxCell id="PNhsJ7UvJWjZuk8Qu5A2-46" value="是否解&lt;div&gt;决问题&lt;/div&gt;" style="rhombus;whiteSpace=wrap;html=1;fillColor=none;rounded=0;" vertex="1" parent="1">
          <mxGeometry x="379.5" y="1884" width="80" height="80" as="geometry" />
        </mxCell>
        <mxCell id="PNhsJ7UvJWjZuk8Qu5A2-48" value="结束会话" style="whiteSpace=wrap;html=1;fillColor=none;rounded=1;" vertex="1" parent="1">
          <mxGeometry x="600" y="1894" width="200" height="60" as="geometry" />
        </mxCell>
        <mxCell id="PNhsJ7UvJWjZuk8Qu5A2-57" value="" style="edgeStyle=orthogonalEdgeStyle;rounded=0;orthogonalLoop=1;jettySize=auto;html=1;" edge="1" parent="1" source="PNhsJ7UvJWjZuk8Qu5A2-51" target="PNhsJ7UvJWjZuk8Qu5A2-56">
          <mxGeometry relative="1" as="geometry" />
        </mxCell>
        <mxCell id="PNhsJ7UvJWjZuk8Qu5A2-51" value="提取用户沟通记录" style="whiteSpace=wrap;html=1;fillColor=none;rounded=0;" vertex="1" parent="1">
          <mxGeometry x="320" y="2054" width="200" height="60" as="geometry" />
        </mxCell>
        <mxCell id="PNhsJ7UvJWjZuk8Qu5A2-60" style="edgeStyle=orthogonalEdgeStyle;rounded=0;orthogonalLoop=1;jettySize=auto;html=1;exitX=0.25;exitY=1;exitDx=0;exitDy=0;entryX=0;entryY=0.75;entryDx=0;entryDy=0;" edge="1" parent="1" source="PNhsJ7UvJWjZuk8Qu5A2-54" target="PNhsJ7UvJWjZuk8Qu5A2-56">
          <mxGeometry relative="1" as="geometry" />
        </mxCell>
        <mxCell id="PNhsJ7UvJWjZuk8Qu5A2-54" value="查找续报值班" style="whiteSpace=wrap;html=1;fillColor=none;rounded=0;" vertex="1" parent="1">
          <mxGeometry x="40" y="2054" width="200" height="60" as="geometry" />
        </mxCell>
        <mxCell id="PNhsJ7UvJWjZuk8Qu5A2-59" style="edgeStyle=orthogonalEdgeStyle;rounded=0;orthogonalLoop=1;jettySize=auto;html=1;exitX=0;exitY=0.25;exitDx=0;exitDy=0;entryX=0.75;entryY=1;entryDx=0;entryDy=0;" edge="1" parent="1" source="PNhsJ7UvJWjZuk8Qu5A2-56" target="PNhsJ7UvJWjZuk8Qu5A2-54">
          <mxGeometry relative="1" as="geometry" />
        </mxCell>
        <mxCell id="PNhsJ7UvJWjZuk8Qu5A2-62" value="" style="edgeStyle=orthogonalEdgeStyle;rounded=0;orthogonalLoop=1;jettySize=auto;html=1;" edge="1" parent="1" source="PNhsJ7UvJWjZuk8Qu5A2-56" target="PNhsJ7UvJWjZuk8Qu5A2-61">
          <mxGeometry relative="1" as="geometry" />
        </mxCell>
        <mxCell id="PNhsJ7UvJWjZuk8Qu5A2-56" value="汇总TB信息" style="whiteSpace=wrap;html=1;fillColor=none;rounded=0;" vertex="1" parent="1">
          <mxGeometry x="320" y="2194" width="200" height="60" as="geometry" />
        </mxCell>
        <mxCell id="PNhsJ7UvJWjZuk8Qu5A2-61" value="创建TB" style="whiteSpace=wrap;html=1;fillColor=none;rounded=1;" vertex="1" parent="1">
          <mxGeometry x="320" y="2334" width="200" height="60" as="geometry" />
        </mxCell>
      </root>
    </mxGraphModel>
  </diagram>
</mxfile>
